<?xml version="1.0" encoding="UTF-8"?><svg id="_圖層_1" xmlns="http://www.w3.org/2000/svg" viewBox="0 0 716 212.5"><defs><style>.cls-1{fill:#2550af;}.cls-2{fill:#eee500;}.cls-3{fill:#c7b7f9;}.cls-4{fill:#fff;}.cls-5{fill:#191919;}.cls-6{fill:#75b4f8;}</style></defs><rect class="cls-4" y="0" width="716" height="212.5"/><path class="cls-5" d="M619.8,58.5h-15.6v97.8h15.6V58.5Z"/><polygon class="cls-5" points="321.8 110.9 368 110.9 368 98.8 321.8 98.8 321.8 69.4 369.3 69.4 369.3 56.3 321.8 56.3 321.8 69.4 306.8 69.4 306.8 156.3 371.3 156.3 371.3 144.2 321.8 144.2 321.8 110.9"/><path class="cls-5" d="M533.5,56.3h-34.8v100h15.4v-87.6h19.4c21,0,30,12.7,30,37.6s-9,36.4-30,36.4h-4.1v13.6h4.1c27.3,0,46.3-15.6,46.3-50s-19-50-46.3-50Z"/><polygon class="cls-5" points="424.7 56.3 389.3 156.3 403.7 156.3 412.5 131.5 444.3 131.5 440.2 120.1 416.5 120.1 432.1 72.1 462.4 156.3 478.3 156.3 442.3 56.3 424.7 56.3"/><path class="cls-5" d="M221.6,102.6v-35.1h22.8c11.1,0,17.2,7.9,17.2,18.6v16.5h10.8c3.4-4.9,4.9-12,4.9-16.8,0-18.7-14.5-29.6-31.8-29.6h-39v100h15.1v-42.4h28.5l17.6,42.4h16.3l-22.4-53.7h-40Z"/><path class="cls-5" d="M655.2,55.5c-19.9-.1-34.8,6.7-35.4,28.6h13.2c.9-11.4,5.8-17.8,20.7-17.3h6.4v-11.3h-4.9Z"/><ellipse class="cls-1" cx="89.6" cy="72.5" rx="25.4" ry="16.9"/><ellipse class="cls-6" cx="140.4" cy="97.7" rx="25.4" ry="16.9"/><ellipse class="cls-3" cx="81.3" cy="114.7" rx="25.4" ry="16.9"/><ellipse class="cls-2" cx="132" cy="140.1" rx="25.4" ry="16.9"/><ellipse class="cls-1" cx="89.6" cy="72.5" rx="25.4" ry="16.9"/><ellipse class="cls-3" cx="81.3" cy="114.7" rx="25.4" ry="16.9"/><ellipse class="cls-2" cx="132" cy="140.1" rx="25.4" ry="16.9"/></svg>