<svg width="24" height="24" viewBox="0 0 24 24" fill="none" xmlns="http://www.w3.org/2000/svg">
<mask id="mask0_14112_35579" style="mask-type:alpha" maskUnits="userSpaceOnUse" x="2" y="2" width="20" height="20">
<rect x="2" y="2" width="20" height="20" fill="#D9D9D9"/>
</mask>
<g mask="url(#mask0_14112_35579)">
<path d="M12.7435 13.2563L11.6121 11.8188C11.5446 11.7237 11.4594 11.6761 11.3565 11.6761C11.2537 11.6761 11.1685 11.7263 11.101 11.8267L9.97437 13.3315C9.88785 13.4458 9.87396 13.5644 9.93271 13.6873C9.9916 13.8103 10.0894 13.8717 10.226 13.8717H16.3573C16.494 13.8717 16.5917 13.8103 16.6504 13.6873C16.7093 13.5644 16.6981 13.4458 16.6169 13.3315L14.9423 11.0719C14.8747 10.9715 14.7881 10.9213 14.6827 10.9213C14.5772 10.9213 14.4906 10.9715 14.4231 11.0719L12.7435 13.2563ZM8.54813 16.5832C8.17299 16.5832 7.8559 16.4537 7.59687 16.1946C7.33785 15.9356 7.20833 15.6185 7.20833 15.2434V5.7563C7.20833 5.38116 7.33785 5.06407 7.59687 4.80505C7.8559 4.54602 8.17299 4.4165 8.54813 4.4165H18.0352C18.4103 4.4165 18.7274 4.54602 18.9865 4.80505C19.2455 5.06407 19.375 5.38116 19.375 5.7563V15.2434C19.375 15.6185 19.2455 15.9356 18.9865 16.1946C18.7274 16.4537 18.4103 16.5832 18.0352 16.5832H8.54813ZM8.54813 15.4998H18.0352C18.0994 15.4998 18.1581 15.4731 18.2115 15.4196C18.2649 15.3663 18.2917 15.3075 18.2917 15.2434V5.7563C18.2917 5.69213 18.2649 5.63338 18.2115 5.58005C18.1581 5.52657 18.0994 5.49984 18.0352 5.49984H8.54813C8.48396 5.49984 8.42521 5.52657 8.37188 5.58005C8.3184 5.63338 8.29167 5.69213 8.29167 5.7563V15.2434C8.29167 15.3075 8.3184 15.3663 8.37188 15.4196C8.42521 15.4731 8.48396 15.4998 8.54813 15.4998ZM5.96479 19.1665C5.58965 19.1665 5.27257 19.037 5.01354 18.778C4.75451 18.5189 4.625 18.2019 4.625 17.8267V7.79796C4.625 7.64421 4.67646 7.51546 4.77938 7.41171C4.88215 7.3081 5.00979 7.2563 5.16229 7.2563C5.31479 7.2563 5.44396 7.3081 5.54979 7.41171C5.65549 7.51546 5.70833 7.64421 5.70833 7.79796V17.8267C5.70833 17.8909 5.73507 17.9496 5.78854 18.003C5.84188 18.0564 5.90062 18.0832 5.96479 18.0832H15.9935C16.1473 18.0832 16.276 18.1346 16.3798 18.2373C16.4834 18.3403 16.5352 18.468 16.5352 18.6205C16.5352 18.773 16.4834 18.9021 16.3798 19.0078C16.276 19.1136 16.1473 19.1665 15.9935 19.1665H5.96479Z" fill="#212944"/>
</g>
</svg>
