<svg width="24" height="24" viewBox="0 0 24 24" fill="none" xmlns="http://www.w3.org/2000/svg">
<mask id="mask0_13575_98423" style="mask-type:alpha" maskUnits="userSpaceOnUse" x="2" y="2" width="20" height="20">
<rect x="2" y="2" width="20" height="20" fill="#D9D9D9"/>
</mask>
<g mask="url(#mask0_13575_98423)">
<path d="M8.75674 18.5832C8.38831 18.5832 8.07292 18.452 7.81055 18.1896C7.54818 17.9272 7.41699 17.6118 7.41699 17.2434V7.49984H6.95866C6.80519 7.49984 6.67654 7.44833 6.57272 7.3453C6.4689 7.24227 6.41699 7.1146 6.41699 6.9623C6.41699 6.80999 6.4689 6.68096 6.57272 6.5752C6.67654 6.46942 6.80519 6.41653 6.95866 6.41653H10.0003V6.16653C10.0003 5.98608 10.0642 5.832 10.1919 5.70428C10.3196 5.57656 10.4737 5.5127 10.6541 5.5127H13.3465C13.5269 5.5127 13.681 5.57656 13.8087 5.70428C13.9364 5.832 14.0003 5.98608 14.0003 6.16653V6.41653H17.042C17.1954 6.41653 17.3241 6.46805 17.4279 6.57109C17.5317 6.67412 17.5836 6.80179 17.5836 6.95409C17.5836 7.1064 17.5317 7.23543 17.4279 7.3412C17.3241 7.44696 17.1954 7.49984 17.042 7.49984H16.5836V17.2344C16.5836 17.613 16.4524 17.9324 16.1901 18.1927C15.9277 18.453 15.6123 18.5832 15.2439 18.5832H8.75674ZM15.5003 7.49984H8.5003V17.2434C8.5003 17.3182 8.52435 17.3796 8.57243 17.4277C8.62051 17.4758 8.68195 17.4998 8.75674 17.4998H15.2439C15.3187 17.4998 15.3801 17.4758 15.4282 17.4277C15.4763 17.3796 15.5003 17.3182 15.5003 17.2434V7.49984ZM10.8744 15.9998C11.0267 15.9998 11.1557 15.9479 11.2615 15.8441C11.3673 15.7403 11.4202 15.6117 11.4202 15.4582V9.54149C11.4202 9.38803 11.3687 9.25939 11.2656 9.15557C11.1626 9.05175 11.0349 8.99984 10.8826 8.99984C10.7303 8.99984 10.6013 9.05175 10.4955 9.15557C10.3897 9.25939 10.3369 9.38803 10.3369 9.54149V15.4582C10.3369 15.6117 10.3884 15.7403 10.4914 15.8441C10.5944 15.9479 10.7221 15.9998 10.8744 15.9998ZM13.118 15.9998C13.2703 15.9998 13.3993 15.9479 13.5051 15.8441C13.6109 15.7403 13.6637 15.6117 13.6637 15.4582V9.54149C13.6637 9.38803 13.6122 9.25939 13.5092 9.15557C13.4062 9.05175 13.2785 8.99984 13.1262 8.99984C12.9739 8.99984 12.8449 9.05175 12.7391 9.15557C12.6333 9.25939 12.5804 9.38803 12.5804 9.54149V15.4582C12.5804 15.6117 12.632 15.7403 12.735 15.8441C12.838 15.9479 12.9657 15.9998 13.118 15.9998Z" fill="#F34B4B"/>
</g>
</svg>
