<svg width="40" height="40" viewBox="0 0 40 40" fill="none"
    xmlns="http://www.w3.org/2000/svg">
    <mask id="mask0_16533_44225" style="mask-type:alpha" maskUnits="userSpaceOnUse" x="0" y="0" width="40" height="40">
        <rect width="40" height="40" fill="#D9D9D9"/>
    </mask>
    <g mask="url(#mask0_16533_44225)">
        <path d="M13.9997 27.4585L19.9997 21.4585L25.9997 27.4585L27.458 26.0002L21.458 20.0002L27.458 14.0002L25.9997 12.5418L19.9997 18.5418L13.9997 12.5418L12.5413 14.0002L18.5413 20.0002L12.5413 26.0002L13.9997 27.4585ZM8.44009 34.1668C7.72204 34.1668 7.10801 33.9118 6.59801 33.4018C6.08801 32.8918 5.83301 32.2778 5.83301 31.5597V8.44058C5.83301 7.72252 6.08801 7.1085 6.59801 6.5985C7.10801 6.0885 7.72204 5.8335 8.44009 5.8335H31.5593C32.2773 5.8335 32.8913 6.0885 33.4013 6.5985C33.9113 7.1085 34.1663 7.72252 34.1663 8.44058V31.5597C34.1663 32.2778 33.9113 32.8918 33.4013 33.4018C32.8913 33.9118 32.2773 34.1668 31.5593 34.1668H8.44009Z" fill="#B2B5BE"/>
    </g>
</svg>
