<svg width="32" height="32" viewBox="0 0 32 32" fill="none" xmlns="http://www.w3.org/2000/svg">
<mask id="mask0_14031_89795" style="mask-type:alpha" maskUnits="userSpaceOnUse" x="4" y="4" width="24" height="24">
<rect x="4" y="4" width="24" height="24" fill="#D9D9D9"/>
</mask>
<g mask="url(#mask0_14031_89795)">
<path d="M13.184 15.9998L20.7168 23.5325C20.9154 23.7312 21.0123 23.9651 21.0073 24.2343C21.0021 24.5036 20.9002 24.7376 20.7015 24.9363C20.5027 25.1349 20.2687 25.2343 19.9995 25.2343C19.7303 25.2343 19.4963 25.1349 19.2975 24.9363L11.6265 17.2805C11.4457 17.0997 11.3117 16.8971 11.2245 16.6728C11.1373 16.4484 11.0938 16.2241 11.0938 15.9998C11.0938 15.7754 11.1373 15.5511 11.2245 15.3268C11.3117 15.1024 11.4457 14.8999 11.6265 14.719L19.2975 7.04777C19.4963 6.8491 19.7329 6.75235 20.0073 6.75752C20.2816 6.76269 20.5181 6.8646 20.7168 7.06327C20.9154 7.26194 21.0148 7.49594 21.0148 7.76527C21.0148 8.03444 20.9154 8.26835 20.7168 8.46702L13.184 15.9998Z" fill="#B2B5BE"/>
</g>
</svg>
