<svg width="20" height="20" viewBox="0 0 20 20" fill="none"
    xmlns="http://www.w3.org/2000/svg">
    <mask id="mask0_14988_8234" style="mask-type:alpha" maskUnits="userSpaceOnUse" x="0" y="0" width="20" height="20">
        <rect width="20" height="20" fill="#D9D9D9"/>
    </mask>
    <g mask="url(#mask0_14988_8234)">
        <path d="M6.20768 10.5415H13.791V9.45817H6.20768V10.5415ZM10.0065 17.5831C8.96325 17.5831 7.98075 17.3858 7.05897 16.991C6.13718 16.5963 5.33036 16.0532 4.63852 15.3617C3.94665 14.6701 3.40327 13.864 3.00837 12.9432C2.61347 12.0224 2.41602 11.0386 2.41602 9.99167C2.41602 8.94475 2.61338 7.96388 3.0081 7.04905C3.40282 6.1342 3.94595 5.33085 4.63747 4.63901C5.32902 3.94714 6.13518 3.40376 7.05595 3.00886C7.97673 2.61396 8.96057 2.4165 10.0075 2.4165C11.0544 2.4165 12.0353 2.61387 12.9501 3.00859C13.8649 3.40331 14.6683 3.94643 15.3601 4.63796C16.052 5.3295 16.5954 6.13404 16.9903 7.05157C17.3852 7.96909 17.5826 8.94946 17.5826 9.99267C17.5826 11.0359 17.3853 12.0184 16.9906 12.9402C16.5958 13.862 16.0527 14.6688 15.3612 15.3606C14.6696 16.0525 13.8651 16.5959 12.9476 16.9908C12.0301 17.3857 11.0497 17.5831 10.0065 17.5831ZM9.99933 16.4998C11.8049 16.4998 13.3396 15.8679 14.6035 14.604C15.8674 13.3401 16.4993 11.8054 16.4993 9.99982C16.4993 8.19426 15.8674 6.65954 14.6035 5.39565C13.3396 4.13176 11.8049 3.49982 9.99933 3.49982C8.19377 3.49982 6.65905 4.13176 5.39516 5.39565C4.13127 6.65954 3.49933 8.19426 3.49933 9.99982C3.49933 11.8054 4.13127 13.3401 5.39516 14.604C6.65905 15.8679 8.19377 16.4998 9.99933 16.4998Z" fill="#B2B5BE"/>
    </g>
</svg>
