<svg width="24" height="24" viewBox="0 0 24 24" fill="none" xmlns="http://www.w3.org/2000/svg">
<mask id="mask0_13575_98402" style="mask-type:alpha" maskUnits="userSpaceOnUse" x="2" y="2" width="20" height="20">
<rect x="2" y="2" width="20" height="20" fill="#D9D9D9"/>
</mask>
<g mask="url(#mask0_13575_98402)">
<path d="M6.24874 18.5509C5.99768 18.5958 5.79042 18.533 5.62694 18.3626C5.46349 18.1922 5.40419 17.9814 5.44907 17.7304L6.08367 14.6551L9.32401 17.9163L6.24874 18.5509ZM9.32401 17.9163L6.08367 14.6551L14.8497 5.90992C15.1093 5.65031 15.4199 5.52051 15.7816 5.52051C16.1432 5.52051 16.4538 5.65031 16.7134 5.90992L18.09 7.26567C18.3496 7.52529 18.4794 7.83938 18.4794 8.20797C18.4794 8.57655 18.3496 8.89065 18.09 9.15026L9.32401 17.9163ZM15.5949 6.68394L7.57403 14.7176L9.28236 16.4259L17.316 8.40509C17.3641 8.35701 17.3881 8.29691 17.3881 8.2248C17.3881 8.15267 17.3641 8.09257 17.316 8.04449L15.9555 6.68394C15.9074 6.63586 15.8473 6.61182 15.7752 6.61182C15.703 6.61182 15.6429 6.63586 15.5949 6.68394Z" fill="#212944"/>
</g>
</svg>
