<svg width="24" height="24" viewBox="0 0 24 24" fill="none" xmlns="http://www.w3.org/2000/svg">
<mask id="mask0_14425_60299" style="mask-type:alpha" maskUnits="userSpaceOnUse" x="2" y="2" width="20" height="20">
<rect x="2" y="2" width="20" height="20" fill="#D9D9D9"/>
</mask>
<g mask="url(#mask0_14425_60299)">
<path d="M5.75674 17.5831C5.39135 17.5831 5.07671 17.4512 4.81283 17.1873C4.54894 16.9234 4.41699 16.6088 4.41699 16.2434V7.75625C4.41699 7.38114 4.54894 7.06407 4.81283 6.80505C5.07671 6.54602 5.39135 6.4165 5.75674 6.4165H9.26368C9.44161 6.4165 9.61287 6.44856 9.77745 6.51267C9.94203 6.57677 10.0927 6.67719 10.2295 6.81394L11.832 8.4165H18.2439C18.619 8.4165 18.936 8.54602 19.1951 8.80505C19.4541 9.06407 19.5836 9.38114 19.5836 9.75625V16.2434C19.5836 16.6088 19.4541 16.9234 19.1951 17.1873C18.936 17.4512 18.619 17.5831 18.2439 17.5831H5.75674ZM5.75674 16.4998H18.2439C18.3187 16.4998 18.3801 16.4758 18.4282 16.4277C18.4763 16.3796 18.5003 16.3182 18.5003 16.2434V9.75625C18.5003 9.68146 18.4763 9.62002 18.4282 9.57194C18.3801 9.52386 18.3187 9.49982 18.2439 9.49982H11.3833L9.45543 7.57194C9.42872 7.54523 9.40068 7.52653 9.3713 7.51584C9.34192 7.50516 9.31119 7.49982 9.27914 7.49982H5.75674C5.68195 7.49982 5.62051 7.52386 5.57243 7.57194C5.52435 7.62002 5.5003 7.68146 5.5003 7.75625V16.2434C5.5003 16.3182 5.52435 16.3796 5.57243 16.4277C5.62051 16.4758 5.68195 16.4998 5.75674 16.4998Z" fill="#212944"/>
</g>
</svg>
