<svg width="24" height="24" viewBox="0 0 24 24" fill="none" xmlns="http://www.w3.org/2000/svg">
<mask id="mask0_16121_16752" style="mask-type:alpha" maskUnits="userSpaceOnUse" x="2" y="2" width="20" height="20">
<rect x="2" y="2" width="20" height="20" fill="#D9D9D9"/>
</mask>
<g mask="url(#mask0_16121_16752)">
<path d="M12.0326 17.5832C10.4821 17.5832 9.16401 17.0403 8.07818 15.9546C6.99221 14.8689 6.44922 13.5511 6.44922 12.0011C6.44922 10.4511 6.99221 9.13282 8.07818 8.0463C9.16401 6.95977 10.4821 6.4165 12.0326 6.4165C12.9513 6.4165 13.7935 6.62268 14.559 7.03505C15.3244 7.44755 15.9609 7.99296 16.4684 8.6713V6.95817C16.4684 6.8047 16.5199 6.67609 16.623 6.57234C16.726 6.46845 16.8537 6.4165 17.0059 6.4165C17.1582 6.4165 17.2873 6.46845 17.393 6.57234C17.4988 6.67609 17.5517 6.8047 17.5517 6.95817V10.0094C17.5517 10.1993 17.4876 10.3584 17.3592 10.4867C17.2307 10.615 17.0716 10.6792 16.8819 10.6792H13.8307C13.6772 10.6792 13.5485 10.6278 13.4446 10.5248C13.3409 10.4218 13.289 10.2941 13.289 10.1417C13.289 9.98949 13.3409 9.86046 13.4446 9.75463C13.5485 9.64893 13.6772 9.59609 13.8307 9.59609H15.8098C15.4123 8.95817 14.8832 8.44935 14.2223 8.06963C13.5617 7.68977 12.8317 7.49984 12.0326 7.49984C10.7826 7.49984 9.72005 7.93734 8.84505 8.81234C7.97005 9.68734 7.53255 10.7498 7.53255 11.9998C7.53255 13.2498 7.97005 14.3123 8.84505 15.1873C9.72005 16.0623 10.7826 16.4998 12.0326 16.4998C13.0982 16.4998 14.0369 16.1691 14.8486 15.5078C15.6603 14.8465 16.1831 14.0153 16.4171 13.0142C16.4406 12.8625 16.5151 12.7391 16.6407 12.644C16.7662 12.549 16.9019 12.5073 17.0476 12.519C17.2031 12.5308 17.3287 12.5898 17.4244 12.6961C17.52 12.8025 17.563 12.9315 17.5534 13.0832C17.2873 14.3844 16.6435 15.4597 15.6221 16.309C14.6007 17.1584 13.4042 17.5832 12.0326 17.5832Z" fill="#B2B5BE"/>
</g>
</svg>
