<svg width="32" height="32" viewBox="0 0 32 32" fill="none" xmlns="http://www.w3.org/2000/svg">
<mask id="mask0_14031_89789" style="mask-type:alpha" maskUnits="userSpaceOnUse" x="4" y="4" width="24" height="24">
<rect x="4" y="4" width="24" height="24" fill="#D9D9D9"/>
</mask>
<g mask="url(#mask0_14031_89789)">
<path d="M18.831 16L11.2983 8.46725C11.0996 8.26858 11.0028 8.03208 11.008 7.75775C11.0132 7.48342 11.1151 7.24683 11.3138 7.048C11.5124 6.84933 11.7489 6.75 12.0233 6.75C12.2976 6.75 12.5342 6.84933 12.733 7.048L20.3888 14.7193C20.5694 14.9001 20.7033 15.1027 20.7905 15.327C20.8778 15.5513 20.9215 15.7757 20.9215 16C20.9215 16.2243 20.8778 16.4487 20.7905 16.673C20.7033 16.8973 20.5694 17.0999 20.3888 17.2808L12.7175 24.952C12.5188 25.1507 12.2849 25.2474 12.0158 25.2423C11.7464 25.2371 11.5124 25.1352 11.3138 24.9365C11.1151 24.7378 11.0158 24.5013 11.0158 24.227C11.0158 23.9527 11.1151 23.7161 11.3138 23.5173L18.831 16Z" fill="#212944"/>
</g>
</svg>
