<svg width="20" height="20" viewBox="0 0 20 20" fill="none" xmlns="http://www.w3.org/2000/svg">
<mask id="mask0_14112_37872" style="mask-type:alpha" maskUnits="userSpaceOnUse" x="0" y="0" width="20" height="20">
<rect width="20" height="20" fill="#D9D9D9"/>
</mask>
<g mask="url(#mask0_14112_37872)">
<path d="M7.65398 9.99989L13.9313 16.2772C14.0968 16.4427 14.1775 16.6377 14.1734 16.862C14.1691 17.0864 14.0841 17.2814 13.9186 17.447C13.7529 17.6125 13.5579 17.6953 13.3336 17.6953C13.1093 17.6953 12.9143 17.6125 12.7486 17.447L6.35607 11.0672C6.20537 10.9165 6.09371 10.7477 6.02107 10.5607C5.94843 10.3738 5.91211 10.1868 5.91211 9.99989C5.91211 9.81295 5.94843 9.626 6.02107 9.43906C6.09371 9.25211 6.20537 9.08329 6.35607 8.9326L12.7486 2.53989C12.9143 2.37433 13.1114 2.29371 13.34 2.29802C13.5686 2.30232 13.7657 2.38725 13.9313 2.55281C14.0968 2.71836 14.1796 2.91336 14.1796 3.13781C14.1796 3.36211 14.0968 3.55704 13.9313 3.7226L7.65398 9.99989Z" fill="white"/>
</g>
</svg>
