<svg width="44" height="44" viewBox="0 0 44 44" fill="none"
    xmlns="http://www.w3.org/2000/svg">
    <mask id="mask0_13760_31192" style="mask-type:alpha" maskUnits="userSpaceOnUse" x="10" y="10" width="24" height="24">
        <rect x="10" y="10" width="24" height="24" fill="#D9D9D9"/>
    </mask>
    <g mask="url(#mask0_13760_31192)">
        <path d="M19.5655 25.5L22 23.65L24.3845 25.4808L23.4693 22.523L25.9423 20.5923H22.9653L22 17.6155L21.0348 20.5923H18.0578L20.4808 22.523L19.5655 25.5ZM14.3077 29.5C13.8091 29.5 13.3831 29.3234 13.0298 28.9703C12.6766 28.6169 12.5 28.1909 12.5 27.6923V24.952C12.5 24.7878 12.5472 24.6423 12.6415 24.5155C12.7357 24.3885 12.8616 24.3019 13.0192 24.2558C13.4577 24.0519 13.8142 23.7493 14.0885 23.348C14.3628 22.9468 14.5 22.4975 14.5 22C14.5 21.5025 14.3628 21.0532 14.0885 20.652C13.8142 20.2507 13.4577 19.9481 13.0192 19.7443C12.8616 19.6981 12.7357 19.6115 12.6415 19.4845C12.5472 19.3577 12.5 19.2122 12.5 19.048V16.3077C12.5 15.8091 12.6766 15.3831 13.0298 15.0298C13.3831 14.6766 13.8091 14.5 14.3077 14.5H29.6923C30.1909 14.5 30.6169 14.6766 30.9703 15.0298C31.3234 15.3831 31.5 15.8091 31.5 16.3077V19.048C31.5 19.2122 31.4528 19.3577 31.3585 19.4845C31.2643 19.6115 31.1384 19.6981 30.9807 19.7443C30.5422 19.9481 30.1858 20.2507 29.9115 20.652C29.6372 21.0532 29.5 21.5025 29.5 22C29.5 22.4975 29.6372 22.9468 29.9115 23.348C30.1858 23.7493 30.5422 24.0519 30.9807 24.2558C31.1384 24.3019 31.2643 24.3885 31.3585 24.5155C31.4528 24.6423 31.5 24.7878 31.5 24.952V27.6923C31.5 28.1909 31.3234 28.6169 30.9703 28.9703C30.6169 29.3234 30.1909 29.5 29.6923 29.5H14.3077ZM14.3077 28H29.6923C29.7821 28 29.8558 27.9712 29.9135 27.9135C29.9712 27.8558 30 27.7821 30 27.6923V25.45C29.3833 25.0833 28.8958 24.5958 28.5375 23.9875C28.1792 23.3792 28 22.7167 28 22C28 21.2833 28.1792 20.6208 28.5375 20.0125C28.8958 19.4042 29.3833 18.9167 30 18.55V16.3077C30 16.2179 29.9712 16.1442 29.9135 16.0865C29.8558 16.0288 29.7821 16 29.6923 16H14.3077C14.2179 16 14.1442 16.0288 14.0865 16.0865C14.0288 16.1442 14 16.2179 14 16.3077V18.55C14.6167 18.9167 15.1042 19.4042 15.4625 20.0125C15.8208 20.6208 16 21.2833 16 22C16 22.7167 15.8208 23.3792 15.4625 23.9875C15.1042 24.5958 14.6167 25.0833 14 25.45V27.6923C14 27.7821 14.0288 27.8558 14.0865 27.9135C14.1442 27.9712 14.2179 28 14.3077 28Z" fill="#212944"/>
    </g>
    <g filter="url(#filter0_dd_13760_31192)">
        <circle cx="33" cy="15" r="5" fill="#F34B4B"/>
    </g>
    <defs>
        <filter id="filter0_dd_13760_31192" x="20" y="2" width="26" height="26" filterUnits="userSpaceOnUse" color-interpolation-filters="sRGB">
            <feFlood flood-opacity="0" result="BackgroundImageFix"/>
            <feColorMatrix in="SourceAlpha" type="matrix" values="0 0 0 0 0 0 0 0 0 0 0 0 0 0 0 0 0 0 127 0" result="hardAlpha"/>
            <feOffset/>
            <feGaussianBlur stdDeviation="2"/>
            <feComposite in2="hardAlpha" operator="out"/>
            <feColorMatrix type="matrix" values="0 0 0 0 0.952941 0 0 0 0 0.294118 0 0 0 0 0.294118 0 0 0 0.5 0"/>
            <feBlend mode="normal" in2="BackgroundImageFix" result="effect1_dropShadow_13760_31192"/>
            <feColorMatrix in="SourceAlpha" type="matrix" values="0 0 0 0 0 0 0 0 0 0 0 0 0 0 0 0 0 0 127 0" result="hardAlpha"/>
            <feOffset/>
            <feGaussianBlur stdDeviation="4"/>
            <feComposite in2="hardAlpha" operator="out"/>
            <feColorMatrix type="matrix" values="0 0 0 0 0.952941 0 0 0 0 0.294118 0 0 0 0 0.294118 0 0 0 0.3 0"/>
            <feBlend mode="normal" in2="effect1_dropShadow_13760_31192" result="effect2_dropShadow_13760_31192"/>
            <feBlend mode="normal" in="SourceGraphic" in2="effect2_dropShadow_13760_31192" result="shape"/>
        </filter>
    </defs>
</svg>
