<svg width="24" height="24" viewBox="0 0 24 24" fill="none" xmlns="http://www.w3.org/2000/svg">
<mask id="mask0_13575_59884" style="mask-type:alpha" maskUnits="userSpaceOnUse" x="2" y="2" width="20" height="20">
<rect x="2" y="2" width="20" height="20" fill="#D9D9D9"/>
</mask>
<g mask="url(#mask0_13575_59884)">
<path d="M5.75577 17.5836C5.39038 17.5836 5.07574 17.4517 4.81185 17.1878C4.54796 16.9239 4.41602 16.6093 4.41602 16.2439V7.75674C4.41602 7.38163 4.54796 7.06456 4.81185 6.80553C5.07574 6.54651 5.39038 6.41699 5.75577 6.41699H9.2627C9.44063 6.41699 9.61189 6.44905 9.77647 6.51316C9.94106 6.57726 10.0917 6.67768 10.2285 6.81443L11.831 8.41699H18.2429C18.618 8.41699 18.9351 8.54651 19.1941 8.80553C19.4531 9.06456 19.5826 9.38163 19.5826 9.75674V16.2439C19.5826 16.6093 19.4531 16.9239 19.1941 17.1878C18.9351 17.4517 18.618 17.5836 18.2429 17.5836H5.75577ZM5.75577 16.5003H18.2429C18.3177 16.5003 18.3791 16.4763 18.4272 16.4282C18.4753 16.3801 18.4993 16.3187 18.4993 16.2439V9.75674C18.4993 9.68195 18.4753 9.62051 18.4272 9.57243C18.3791 9.52435 18.3177 9.50031 18.2429 9.50031H11.3823L9.45445 7.57243C9.42775 7.54572 9.3997 7.52702 9.37033 7.51633C9.34094 7.50565 9.31022 7.50031 9.27816 7.50031H5.75577C5.68097 7.50031 5.61954 7.52435 5.57145 7.57243C5.52337 7.62051 5.49933 7.68195 5.49933 7.75674V16.2439C5.49933 16.3187 5.52337 16.3801 5.57145 16.4282C5.61954 16.4763 5.68097 16.5003 5.75577 16.5003Z" fill="white"/>
</g>
</svg>
