<svg width="44" height="44" viewBox="0 0 44 44" fill="none" xmlns="http://www.w3.org/2000/svg">
<circle cx="22" cy="22" r="20" fill="#F2F2F4"/>
<mask id="mask0_14502_156689" style="mask-type:alpha" maskUnits="userSpaceOnUse" x="10" y="10" width="24" height="24">
<rect x="10" y="10" width="24" height="24" fill="#D9D9D9"/>
</mask>
<g mask="url(#mask0_14502_156689)">
<path d="M22.0005 23.0538L16.9274 28.1269C16.7889 28.2654 16.6149 28.3362 16.4053 28.3394C16.1957 28.3426 16.0184 28.2718 15.8736 28.1269C15.7287 27.982 15.6562 27.8064 15.6562 27.6C15.6562 27.3936 15.7287 27.218 15.8736 27.0731L20.9466 22L15.8736 16.9269C15.7351 16.7884 15.6643 16.6144 15.6611 16.4048C15.6579 16.1952 15.7287 16.018 15.8736 15.8731C16.0184 15.7282 16.1941 15.6558 16.4005 15.6558C16.6069 15.6558 16.7825 15.7282 16.9274 15.8731L22.0005 20.9462L27.0736 15.8731C27.212 15.7346 27.3861 15.6638 27.5957 15.6606C27.8053 15.6574 27.9825 15.7282 28.1274 15.8731C28.2723 16.018 28.3447 16.1936 28.3447 16.4C28.3447 16.6064 28.2723 16.782 28.1274 16.9269L23.0543 22L28.1274 27.0731C28.2658 27.2115 28.3367 27.3856 28.3399 27.5952C28.3431 27.8048 28.2723 27.982 28.1274 28.1269C27.9825 28.2718 27.8069 28.3442 27.6005 28.3442C27.3941 28.3442 27.2184 28.2718 27.0736 28.1269L22.0005 23.0538Z" fill="#212944"/>
</g>
</svg>
