<svg width="16" height="16" viewBox="0 0 16 16" fill="none"
    xmlns="http://www.w3.org/2000/svg">
    <mask id="mask0_16533_59777" style="mask-type:alpha" maskUnits="userSpaceOnUse" x="0" y="0" width="16" height="16">
        <rect width="16" height="16" fill="#D9D9D9"/>
    </mask>
    <g mask="url(#mask0_16533_59777)">
        <path d="M7.99995 8.61921L5.15128 11.468C5.05894 11.5603 4.95956 11.6047 4.85311 11.6014C4.74678 11.5979 4.64528 11.5479 4.54861 11.4514C4.45206 11.3547 4.40378 11.2515 4.40378 11.1417C4.40378 11.0319 4.45206 10.9287 4.54861 10.832L7.38078 8.00004L4.53195 5.15137C4.43972 5.05904 4.39528 4.95687 4.39861 4.84487C4.40206 4.73299 4.45206 4.62871 4.54861 4.53204C4.64528 4.43548 4.7485 4.38721 4.85828 4.38721C4.96806 4.38721 5.07128 4.43548 5.16794 4.53204L7.99995 7.38087L10.8486 4.53204C10.9409 4.43982 11.0431 4.3926 11.1551 4.39037C11.267 4.38826 11.3713 4.43548 11.4679 4.53204C11.5645 4.62871 11.6128 4.73193 11.6128 4.84171C11.6128 4.95149 11.5645 5.05471 11.4679 5.15137L8.61911 8.00004L11.4679 10.8487C11.5602 10.941 11.6074 11.0404 11.6096 11.1469C11.6117 11.2532 11.5645 11.3547 11.4679 11.4514C11.3713 11.5479 11.2681 11.5962 11.1583 11.5962C11.0485 11.5962 10.9453 11.5479 10.8486 11.4514L7.99995 8.61921Z" fill="#B2B5BE"/>
    </g>
</svg>
