<svg width="24" height="24" viewBox="0 0 24 24" fill="none" xmlns="http://www.w3.org/2000/svg">
<mask id="mask0_15710_101250" style="mask-type:alpha" maskUnits="userSpaceOnUse" x="2" y="2" width="20" height="20">
<rect x="2" y="2" width="20" height="20" fill="#D9D9D9"/>
</mask>
<g mask="url(#mask0_15710_101250)">
<path d="M12.0045 18.5833C11.8521 18.5833 11.7231 18.5313 11.6174 18.4275C11.5116 18.3237 11.4587 18.1951 11.4587 18.0416V12.5416H5.95866C5.80519 12.5416 5.67658 12.4901 5.57283 12.387C5.46894 12.284 5.41699 12.1563 5.41699 12.0041C5.41699 11.8518 5.46894 11.7227 5.57283 11.617C5.67658 11.5112 5.80519 11.4583 5.95866 11.4583H11.4587V5.95829C11.4587 5.80482 11.5102 5.67621 11.6132 5.57246C11.7163 5.46857 11.8439 5.41663 11.9962 5.41663C12.1485 5.41663 12.2775 5.46857 12.3832 5.57246C12.4891 5.67621 12.542 5.80482 12.542 5.95829V11.4583H18.042C18.1955 11.4583 18.3241 11.5098 18.4278 11.6129C18.5317 11.7159 18.5837 11.8436 18.5837 11.9958C18.5837 12.1482 18.5317 12.2772 18.4278 12.3829C18.3241 12.4887 18.1955 12.5416 18.042 12.5416H12.542V18.0416C12.542 18.1951 12.4905 18.3237 12.3874 18.4275C12.2844 18.5313 12.1567 18.5833 12.0045 18.5833Z" fill="white"/>
</g>
</svg>
