<svg width="24" height="24" viewBox="0 0 24 24" fill="none" xmlns="http://www.w3.org/2000/svg">
<mask id="mask0_13575_62595" style="mask-type:alpha" maskUnits="userSpaceOnUse" x="2" y="2" width="20" height="20">
<rect x="2" y="2" width="20" height="20" fill="#D9D9D9"/>
</mask>
<g mask="url(#mask0_13575_62595)">
<path d="M7.49982 12.5836V18.2503C7.49982 18.4038 7.4483 18.5324 7.34527 18.6362C7.24225 18.74 7.11458 18.792 6.96227 18.792C6.80997 18.792 6.68093 18.74 6.57517 18.6362C6.46939 18.5324 6.4165 18.4038 6.4165 18.2503V6.08687C6.4165 5.89708 6.48071 5.73799 6.60911 5.6096C6.7375 5.48119 6.89659 5.41699 7.08638 5.41699H12.1387C12.3062 5.41699 12.4506 5.46305 12.572 5.55518C12.6934 5.64729 12.7697 5.76736 12.8011 5.91539L13.1633 7.41699H16.9133C17.103 7.41699 17.2621 7.48089 17.3905 7.60868C17.5189 7.73646 17.5831 7.89479 17.5831 8.08368V13.9171C17.5831 14.106 17.5189 14.2643 17.3905 14.392C17.2621 14.5197 17.103 14.5836 16.9133 14.5836H13.8556C13.6977 14.5836 13.5568 14.5376 13.4327 14.4454C13.3087 14.3533 13.2306 14.2332 13.1986 14.0852L12.8364 12.5836H7.49982ZM14.1665 13.5003H16.4998V8.50031H12.8524C12.6945 8.50031 12.5535 8.45425 12.4295 8.36214C12.3054 8.27003 12.2274 8.14995 12.1953 8.00191L11.8331 6.50031H7.49982V11.5003H13.1473C13.3051 11.5003 13.4461 11.5464 13.5701 11.6385C13.6942 11.7306 13.7723 11.8507 13.8043 11.9987L14.1665 13.5003Z" fill="#212944"/>
</g>
</svg>
