<svg width="24" height="24" viewBox="0 0 24 24" fill="none" xmlns="http://www.w3.org/2000/svg">
<mask id="mask0_14392_10228" style="mask-type:alpha" maskUnits="userSpaceOnUse" x="2" y="2" width="20" height="20">
<rect x="2" y="2" width="20" height="20" fill="#D9D9D9"/>
</mask>
<g mask="url(#mask0_14392_10228)">
<path d="M12.0008 19.5833C10.9614 19.5833 9.98074 19.3859 9.05893 18.9912C8.13713 18.5965 7.33032 18.0534 6.63852 17.3618C5.94671 16.6703 5.40331 15.8638 5.00831 14.9425C4.61345 14.0211 4.41602 13.0407 4.41602 12.0014C4.41602 10.9481 4.61338 9.96399 5.0081 9.04913C5.40282 8.13426 5.94595 7.33093 6.63747 6.63913C7.329 5.94732 8.13546 5.40392 9.05685 5.00892C9.97824 4.61406 10.9586 4.41663 11.9979 4.41663C13.0512 4.41663 14.0353 4.61399 14.9502 5.00871C15.865 5.40343 16.6684 5.94656 17.3602 6.63808C18.052 7.32961 18.5954 8.1326 18.9904 9.04704C19.3853 9.96149 19.5827 10.9453 19.5827 11.9985C19.5827 13.0379 19.3853 14.0186 18.9906 14.9404C18.5959 15.8622 18.0528 16.669 17.3612 17.3608C16.6697 18.0526 15.8667 18.596 14.9523 18.991C14.0378 19.3859 13.054 19.5833 12.0008 19.5833ZM11.9993 18.5C12.795 18.5 13.548 18.3643 14.2581 18.0929C14.9681 17.8215 15.6089 17.4423 16.1804 16.9552L7.04414 7.81892C6.56234 8.39045 6.18442 9.03121 5.91039 9.74121C5.63636 10.4513 5.49935 11.2043 5.49935 12C5.49935 13.8055 6.13129 15.3402 7.39518 16.6041C8.65907 17.868 10.1938 18.5 11.9993 18.5ZM16.9546 16.181C17.4416 15.6095 17.8209 14.9687 18.0923 14.2587C18.3637 13.5486 18.4993 12.7957 18.4993 12C18.4993 10.1944 17.8674 8.65968 16.6035 7.39579C15.3396 6.1319 13.8049 5.49996 11.9993 5.49996C11.2017 5.49996 10.447 5.63433 9.73518 5.90308C9.02352 6.17169 8.38456 6.55225 7.81831 7.04475L16.9546 16.181Z" fill="#F34B4B"/>
</g>
</svg>
