<svg width="24" height="24" viewBox="0 0 24 24" fill="none" xmlns="http://www.w3.org/2000/svg">
<mask id="mask0_13575_98416" style="mask-type:alpha" maskUnits="userSpaceOnUse" x="0" y="0" width="24" height="24">
<rect width="24" height="24" fill="#D9D9D9"/>
</mask>
<g mask="url(#mask0_13575_98416)">
<path d="M4.9216 15.1731L7.66185 17.9136C7.75552 18.0071 7.80552 18.1208 7.81185 18.2548C7.81835 18.3888 7.76835 18.511 7.66185 18.6213C7.55168 18.7315 7.43277 18.7866 7.3051 18.7866C7.1776 18.7866 7.05869 18.7315 6.94835 18.6213L3.56585 15.2386C3.47852 15.1514 3.41727 15.0623 3.3821 14.9713C3.34677 14.8802 3.3291 14.7808 3.3291 14.6731C3.3291 14.5654 3.34677 14.4661 3.3821 14.3751C3.41727 14.2841 3.47852 14.195 3.56585 14.1078L6.9541 10.7193C7.0516 10.6218 7.16635 10.5708 7.29835 10.5663C7.43052 10.5618 7.55168 10.6148 7.66185 10.7251C7.76835 10.8354 7.82252 10.9533 7.82435 11.0788C7.82635 11.2045 7.77218 11.3225 7.66185 11.4328L4.9216 14.1731H11.8081C11.9504 14.1731 12.0694 14.2208 12.1649 14.3163C12.2604 14.4118 12.3081 14.5308 12.3081 14.6731C12.3081 14.8154 12.2604 14.9343 12.1649 15.0298C12.0694 15.1253 11.9504 15.1731 11.8081 15.1731H4.9216ZM19.0791 9.80784H12.1926C12.0503 9.80784 11.9314 9.76009 11.8359 9.66459C11.7404 9.56909 11.6926 9.45017 11.6926 9.30784C11.6926 9.1655 11.7404 9.04658 11.8359 8.95108C11.9314 8.85558 12.0503 8.80784 12.1926 8.80784H19.0791L16.3389 6.06734C16.2452 5.97384 16.1952 5.86008 16.1889 5.72608C16.1824 5.59208 16.2324 5.46992 16.3389 5.35959C16.449 5.24942 16.5679 5.19434 16.6956 5.19434C16.8231 5.19434 16.942 5.24942 17.0524 5.35959L20.4349 8.74234C20.5222 8.8295 20.5834 8.91859 20.6186 9.00959C20.6539 9.10075 20.6716 9.20017 20.6716 9.30784C20.6716 9.4155 20.6539 9.51483 20.6186 9.60583C20.5834 9.69684 20.5222 9.78592 20.4349 9.87309L17.0466 13.2616C16.9491 13.3591 16.8344 13.4101 16.7024 13.4146C16.5702 13.4191 16.449 13.3662 16.3389 13.2558C16.2324 13.1457 16.1782 13.0278 16.1764 12.9021C16.1744 12.7764 16.2285 12.6584 16.3389 12.5481L19.0791 9.80784Z" fill="#1C1B1F"/>
</g>
</svg>
