<?xml version="1.0" encoding="UTF-8"?>
<svg id="_圖層_1" data-name="圖層_1" xmlns="http://www.w3.org/2000/svg" version="1.1" viewBox="0 0 178 178">
  <!-- Generator: Adobe Illustrator 29.1.0, SVG Export Plug-In . SVG Version: 2.1.0 Build 142)  -->
  <path d="M118.6,63.5c-14,0-25.4,7.6-25.4,16.9s11.4,16.9,25.4,16.9,25.4-7.6,25.4-16.9-11.4-16.9-25.4-16.9"/>
  <path d="M67.8,38.3c-14,0-25.4,7.6-25.4,16.9s11.4,16.9,25.4,16.9,25.4-7.6,25.4-16.9-11.4-16.9-25.4-16.9"/>
  <path d="M59.4,80.5c-14,0-25.4,7.6-25.4,16.9s11.4,16.9,25.4,16.9,25.4-7.6,25.4-16.9-11.4-16.9-25.4-16.9"/>
  <path d="M110.1,105.9c-14,0-25.4,7.6-25.4,16.9s11.4,16.9,25.4,16.9,25.4-7.6,25.4-16.9-11.4-16.9-25.4-16.9"/>
</svg>